<svg width="30" height="34" viewBox="0 0 30 34" fill="none" xmlns="http://www.w3.org/2000/svg">
<path d="M13.3333 33.7083V18.4583L0 10.75V24.125C0 24.7361 0.145833 25.2917 0.4375 25.7917C0.729167 26.2917 1.13889 26.6944 1.66667 27L13.3333 33.7083ZM16.6667 33.7083L28.3333 27C28.8611 26.6944 29.2708 26.2917 29.5625 25.7917C29.8542 25.2917 30 24.7361 30 24.125V10.75L16.6667 18.4583V33.7083ZM23.2917 10.7917L28.2083 7.91667L16.6667 1.29167C16.1389 0.986111 15.5833 0.833333 15 0.833333C14.4167 0.833333 13.8611 0.986111 13.3333 1.29167L10.0417 3.16667L23.2917 10.7917ZM15 15.5833L19.9583 12.75L6.75 5.08333L1.75 7.95833L15 15.5833Z" fill="#D8D0C6"/>
</svg>
