<svg width="24" height="24" viewBox="0 0 24 24" fill="none" xmlns="http://www.w3.org/2000/svg">
<path d="M8 21.8625V12.7125L0 8.08745V16.1125C0 16.4791 0.0875 16.8125 0.2625 17.1125C0.4375 17.4125 0.683333 17.6541 1 17.8375L8 21.8625ZM10 21.8625L17 17.8375C17.3167 17.6541 17.5625 17.4125 17.7375 17.1125C17.9125 16.8125 18 16.4791 18 16.1125V8.08745L10 12.7125V21.8625ZM13.975 8.11245L16.925 6.38745L10 2.41245C9.68333 2.22912 9.35 2.13745 9 2.13745C8.65 2.13745 8.31667 2.22912 8 2.41245L6.025 3.53745L13.975 8.11245ZM9 10.9875L11.975 9.28745L4.05 4.68745L1.05 6.41245L9 10.9875Z" fill="white"/>
</svg>
