<svg width="40" height="41" viewBox="0 0 40 41" fill="none" xmlns="http://www.w3.org/2000/svg">
<mask id="mask0_312_408" style="mask-type:alpha" maskUnits="userSpaceOnUse" x="0" y="0" width="40" height="41">
<rect y="0.5" width="40" height="40" fill="#D9D9D9"/>
</mask>
<g mask="url(#mask0_312_408)">
<path d="M18.3333 36.7083V21.4583L5 13.75V27.125C5 27.7361 5.14583 28.2917 5.4375 28.7917C5.72917 29.2917 6.13889 29.6944 6.66667 30L18.3333 36.7083ZM21.6667 36.7083L33.3333 30C33.8611 29.6944 34.2708 29.2917 34.5625 28.7917C34.8542 28.2917 35 27.7361 35 27.125V13.75L21.6667 21.4583V36.7083ZM28.2917 13.7917L33.2083 10.9167L21.6667 4.29167C21.1389 3.98611 20.5833 3.83333 20 3.83333C19.4167 3.83333 18.8611 3.98611 18.3333 4.29167L15.0417 6.16667L28.2917 13.7917ZM20 18.5833L24.9583 15.75L11.75 8.08333L6.75 10.9583L20 18.5833Z" fill="#D8D0C6"/>
</g>
</svg>
